<svg width="33" height="29" viewBox="0 0 33 29" fill="none" xmlns="http://www.w3.org/2000/svg">
<path d="M10.6676 19.279H28.0829C28.5142 19.279 28.8925 18.9938 29.0092 18.5796L32.8652 5.08426C32.9481 4.79333 32.8913 4.4808 32.7088 4.23906C32.5261 3.99808 32.2419 3.85575 31.9387 3.85575H8.44223L7.75317 0.755084C7.65527 0.31353 7.26367 0 6.81182 0H0.963937C0.431261 0 0 0.431261 0 0.963937C0 1.49686 0.431261 1.92787 0.963937 1.92787H6.03816L9.51913 17.5918C8.49494 18.0372 7.77576 19.0566 7.77576 20.2429C7.77576 21.8374 9.07306 23.1347 10.6676 23.1347H28.0829C28.6159 23.1347 29.0469 22.7037 29.0469 22.1708C29.0469 21.6381 28.6159 21.2069 28.0829 21.2069H10.6676C10.1366 21.2069 9.70363 20.7748 9.70363 20.2429C9.70363 19.711 10.1366 19.279 10.6676 19.279Z" fill="#FDD444"/>
<path d="M9.70361 26.0266C9.70361 27.6213 11.0009 28.9184 12.5957 28.9184C14.1902 28.9184 15.4875 27.6213 15.4875 26.0266C15.4875 24.4321 14.1902 23.1348 12.5957 23.1348C11.0009 23.1348 9.70361 24.4321 9.70361 26.0266Z" fill="#FDD444"/>
<path d="M23.2633 26.0266C23.2633 27.6213 24.5606 28.9184 26.1551 28.9184C27.7498 28.9184 29.0469 27.6213 29.0469 26.0266C29.0469 24.4321 27.7498 23.1348 26.1551 23.1348C24.5606 23.1348 23.2633 24.4321 23.2633 26.0266Z" fill="#FDD444"/>
</svg>
